<svg width="1390" height="199" viewBox="0 0 1390 199" fill="none" xmlns="http://www.w3.org/2000/svg">
<path d="M1382.71 0.292893C1382.32 -0.0976311 1381.68 -0.0976311 1381.29 0.292893L1374.93 6.65685C1374.54 7.04738 1374.54 7.68054 1374.93 8.07107C1375.32 8.46159 1375.95 8.46159 1376.34 8.07107L1382 2.41421L1387.66 8.07107C1388.05 8.46159 1388.68 8.46159 1389.07 8.07107C1389.46 7.68054 1389.46 7.04738 1389.07 6.65685L1382.71 0.292893ZM0 1V2.51786H2V1H0ZM0 5.55357V8.58929H2V5.55357H0ZM0 11.625V14.6607H2V11.625H0ZM0 17.6964V20.7321H2V17.6964H0ZM0 23.7679V26.8036H2V23.7679H0ZM0 29.8393V32.875H2V29.8393H0ZM0 35.9107V38.9464H2V35.9107H0ZM0 41.9821V45.0179H2V41.9821H0ZM0 48.0536V51.0893H2V48.0536H0ZM0 54.125V57.1607H2V54.125H0ZM0 60.1964V63.2321H2V60.1964H0ZM0 66.2679V69.3036H2V66.2679H0ZM0 72.3393V75.375H2V72.3393H0ZM0 78.4107V81.4464H2V78.4107H0ZM0 84.4821V87.5178H2V84.4821H0ZM0 90.5536V93.5893H2V90.5536H0ZM0 96.625V99.6607H2V96.625H0ZM0 102.696V105.732H2V102.696H0ZM0 108.768V111.804H2V108.768H0ZM0 114.839V117.875H2V114.839H0ZM0 120.911V123.946H2V120.911H0ZM0 126.982V130.018H2V126.982H0ZM0 133.054V136.089H2V133.054H0ZM0 139.125V142.161H2V139.125H0ZM0 145.196V148.232H2V145.196H0ZM0 151.268V154.304H2V151.268H0ZM0 157.339V160.375H2V157.339H0ZM0 163.411V166.446H2V163.411H0ZM0 169.482V171H2V169.482H0ZM0 171C0 171.554 0.0215126 172.104 0.0637769 172.648L2.05777 172.493C2.0195 172.001 2 171.503 2 171H0ZM0.575827 175.904C0.834189 176.983 1.17595 178.031 1.59388 179.039L3.44134 178.273C3.06347 177.361 2.75451 176.415 2.52093 175.438L0.575827 175.904ZM3.09247 181.974C3.66953 182.914 4.3184 183.805 5.03141 184.639L6.55162 183.339C5.90614 182.584 5.31889 181.778 4.79677 180.928L3.09247 181.974ZM7.36109 186.969C8.19513 187.682 9.08581 188.33 10.0255 188.908L11.0721 187.203C10.2219 186.681 9.41573 186.094 8.66069 185.448L7.36109 186.969ZM12.9612 190.406C13.969 190.824 15.0165 191.166 16.0964 191.424L16.5618 189.479C15.5855 189.245 14.6385 188.937 13.7273 188.559L12.9612 190.406ZM19.3518 191.936C19.8958 191.978 20.4455 192 21 192V190C20.4973 190 19.9993 189.98 19.5067 189.942L19.3518 191.936ZM21 192H22.4967V190H21V192ZM25.49 192H28.4833V190H25.49V192ZM31.4766 192H34.4699V190H31.4766V192ZM37.4632 192H40.4565V190H37.4632V192ZM43.4498 192H46.4431V190H43.4498V192ZM49.4364 192H52.4297V190H49.4364V192ZM55.423 192H58.4163V190H55.423V192ZM61.4096 192H64.4029V190H61.4096V192ZM67.3962 192H70.3895V190H67.3962V192ZM73.3828 192H76.3761V190H73.3828V192ZM79.3694 192H82.3627V190H79.3694V192ZM85.356 192H88.3493V190H85.356V192ZM91.3426 192H94.3359V190H91.3426V192ZM97.3292 192H100.323V190H97.3292V192ZM103.316 192H106.309V190H103.316V192ZM109.302 192H112.296V190H109.302V192ZM115.289 192H118.282V190H115.289V192ZM121.276 192H124.269V190H121.276V192ZM127.262 192H130.256V190H127.262V192ZM133.249 192H136.242V190H133.249V192ZM139.235 192H142.229V190H139.235V192ZM145.222 192H148.215V190H145.222V192ZM151.209 192H154.202V190H151.209V192ZM157.195 192H160.189V190H157.195V192ZM163.182 192H166.175V190H163.182V192ZM169.168 192H172.162V190H169.168V192ZM175.155 192H178.148V190H175.155V192ZM181.142 192H184.135V190H181.142V192ZM187.128 192H190.122V190H187.128V192ZM193.115 192H196.108V190H193.115V192ZM199.101 192H202.095V190H199.101V192ZM205.088 192H208.081V190H205.088V192ZM211.075 192H214.068V190H211.075V192ZM217.061 192H220.055V190H217.061V192ZM223.048 192H226.041V190H223.048V192ZM229.035 192H232.028V190H229.035V192ZM235.021 192H238.014V190H235.021V192ZM241.008 192H244.001V190H241.008V192ZM246.994 192H249.988V190H246.994V192ZM252.981 192H255.974V190H252.981V192ZM258.968 192H261.961V190H258.968V192ZM264.954 192H267.947V190H264.954V192ZM270.941 192H273.934V190H270.941V192ZM276.927 192H279.921V190H276.927V192ZM282.914 192H285.907V190H282.914V192ZM288.901 192H291.894V190H288.901V192ZM294.887 192H297.881V190H294.887V192ZM300.874 192H303.867V190H300.874V192ZM306.86 192H309.854V190H306.86V192ZM312.847 192H315.84V190H312.847V192ZM318.834 192H321.827V190H318.834V192ZM324.82 192H327.814V190H324.82V192ZM330.807 192H333.8V190H330.807V192ZM336.794 192H339.787V190H336.794V192ZM342.78 192H345.774V190H342.78V192ZM348.767 192H351.76V190H348.767V192ZM354.754 192H357.747V190H354.754V192ZM360.74 192H363.734V190H360.74V192ZM366.727 192H369.72V190H366.727V192ZM372.713 192H375.707V190H372.713V192ZM378.7 192H381.693V190H378.7V192ZM384.687 192H387.68V190H384.687V192ZM390.673 192H393.667V190H390.673V192ZM396.66 192H399.653V190H396.66V192ZM402.647 192H405.64V190H402.647V192ZM408.633 192H411.627V190H408.633V192ZM414.62 192H417.613V190H414.62V192ZM420.607 192H423.6V190H420.607V192ZM426.593 192H429.586V190H426.593V192ZM432.58 192H435.573V190H432.58V192ZM438.566 192H441.56V190H438.566V192ZM444.553 192H447.546V190H444.553V192ZM450.54 192H453.533V190H450.54V192ZM456.526 192H459.52V190H456.526V192ZM462.513 192H465.506V190H462.513V192ZM468.5 192H471.493V190H468.5V192ZM474.486 192H477.48V190H474.486V192ZM480.473 192H483.466V190H480.473V192ZM486.459 192H489.453V190H486.459V192ZM492.446 192H495.439V190H492.446V192ZM498.433 192H501.426V190H498.433V192ZM504.419 192H507.413V190H504.419V192ZM510.406 192H513.399V190H510.406V192ZM516.393 192H519.386V190H516.393V192ZM522.379 192H525.373V190H522.379V192ZM528.366 192H531.359V190H528.366V192ZM534.353 192H537.346V190H534.353V192ZM540.339 192H543.332V190H540.339V192ZM546.326 192H549.319V190H546.326V192ZM552.312 192H555.306V190H552.312V192ZM558.299 192H561.292V190H558.299V192ZM564.285 192H567.279V190H564.285V192ZM570.272 192H573.265V190H570.272V192ZM576.259 192H579.252V190H576.259V192ZM582.245 192H585.238V190H582.245V192ZM588.232 192H591.225V190H588.232V192ZM594.218 192H597.212V190H594.218V192ZM600.205 192H603.198V190H600.205V192ZM606.191 192H609.185V190H606.191V192ZM612.178 192H615.171V190H612.178V192ZM618.165 192H621.158V190H618.165V192ZM624.151 192H627.144V190H624.151V192ZM630.138 192H633.131V190H630.138V192ZM636.124 192H639.118V190H636.124V192ZM642.111 192H645.104V190H642.111V192ZM648.097 192H651.091V190H648.097V192ZM654.084 192H657.077V190H654.084V192ZM660.071 192H663.064V190H660.071V192ZM666.057 192H669.05V190H666.057V192ZM672.044 192H675.037V190H672.044V192ZM678.03 192H681.024V190H678.03V192ZM684.017 192H687.01V190H684.017V192ZM690.003 192H692.997V190H690.003V192ZM695.99 192H698.983V190H695.99V192ZM701.977 192H704.97V190H701.977V192ZM707.963 192H710.956V190H707.963V192ZM713.95 192H716.943V190H713.95V192ZM719.936 192H722.93V190H719.936V192ZM725.923 192H728.916V190H725.923V192ZM731.909 192H734.903V190H731.909V192ZM737.896 192H740.889V190H737.896V192ZM743.883 192H746.876V190H743.883V192ZM749.869 192H752.862V190H749.869V192ZM755.856 192H758.849V190H755.856V192ZM761.842 192H764.836V190H761.842V192ZM767.829 192H770.822V190H767.829V192ZM773.815 192H776.809V190H773.815V192ZM779.802 192H782.795V190H779.802V192ZM785.789 192H788.782V190H785.789V192ZM791.775 192H794.768V190H791.775V192ZM797.762 192H800.755V190H797.762V192ZM803.748 192H806.742V190H803.748V192ZM809.735 192H812.728V190H809.735V192ZM815.721 192H818.715V190H815.721V192ZM821.708 192H824.701V190H821.708V192ZM827.695 192H830.688V190H827.695V192ZM833.681 192H836.674V190H833.681V192ZM839.668 192H842.661V190H839.668V192ZM845.654 192H848.648V190H845.654V192ZM851.641 192H854.634V190H851.641V192ZM857.627 192H860.621V190H857.627V192ZM863.614 192H866.607V190H863.614V192ZM869.601 192H872.594V190H869.601V192ZM875.587 192H878.58V190H875.587V192ZM881.574 192H884.567V190H881.574V192ZM887.56 192H890.554V190H887.56V192ZM893.547 192H896.54V190H893.547V192ZM899.533 192H902.527V190H899.533V192ZM905.52 192H908.513V190H905.52V192ZM911.507 192H914.5V190H911.507V192ZM917.493 192H920.486V190H917.493V192ZM923.48 192H926.473V190H923.48V192ZM929.466 192H932.46V190H929.466V192ZM935.453 192H938.446V190H935.453V192ZM941.439 192H944.433V190H941.439V192ZM947.426 192H950.419V190H947.426V192ZM953.413 192H956.406V190H953.413V192ZM959.399 192H962.392V190H959.399V192ZM965.386 192H968.379V190H965.386V192ZM971.372 192H974.366V190H971.372V192ZM977.359 192H980.352V190H977.359V192ZM983.345 192H986.339V190H983.345V192ZM989.332 192H992.325V190H989.332V192ZM995.319 192H998.312V190H995.319V192ZM1001.31 192H1004.3V190H1001.31V192ZM1007.29 192H1010.28V190H1007.29V192ZM1013.28 192H1016.27V190H1013.28V192ZM1019.26 192H1022.26V190H1019.26V192ZM1025.25 192H1028.24V190H1025.25V192ZM1031.24 192H1034.23V190H1031.24V192ZM1037.22 192H1040.22V190H1037.22V192ZM1043.21 192H1046.2V190H1043.21V192ZM1049.2 192H1052.19V190H1049.2V192ZM1055.18 192H1058.18V190H1055.18V192ZM1061.17 192H1064.16V190H1061.17V192ZM1067.16 192H1070.15V190H1067.16V192ZM1073.14 192H1076.14V190H1073.14V192ZM1079.13 192H1082.12V190H1079.13V192ZM1085.12 192H1088.11V190H1085.12V192ZM1091.1 192H1094.1V190H1091.1V192ZM1097.09 192H1100.08V190H1097.09V192ZM1103.08 192H1106.07V190H1103.08V192ZM1109.06 192H1112.06V190H1109.06V192ZM1115.05 192H1118.04V190H1115.05V192ZM1121.04 192H1124.03V190H1121.04V192ZM1127.02 192H1130.02V190H1127.02V192ZM1133.01 192H1136V190H1133.01V192ZM1139 192H1141.99V190H1139V192ZM1144.98 192H1147.98V190H1144.98V192ZM1150.97 192H1153.96V190H1150.97V192ZM1156.96 192H1159.95V190H1156.96V192ZM1162.94 192H1165.94V190H1162.94V192ZM1168.93 192H1171.92V190H1168.93V192ZM1174.92 192H1177.91V190H1174.92V192ZM1180.9 192H1183.9V190H1180.9V192ZM1186.89 192H1189.88V190H1186.89V192ZM1192.88 192H1195.87V190H1192.88V192ZM1198.86 192H1201.86V190H1198.86V192ZM1204.85 192H1207.84V190H1204.85V192ZM1210.84 192H1213.83V190H1210.84V192ZM1216.82 192H1219.82V190H1216.82V192ZM1222.81 192H1225.8V190H1222.81V192ZM1228.79 192H1231.79V190H1228.79V192ZM1234.78 192H1237.77V190H1234.78V192ZM1240.77 192H1243.76V190H1240.77V192ZM1246.75 192H1249.75V190H1246.75V192ZM1252.74 192H1255.73V190H1252.74V192ZM1258.73 192H1261.72V190H1258.73V192ZM1264.71 192H1267.71V190H1264.71V192ZM1270.7 192H1273.69V190H1270.7V192ZM1276.69 192H1279.68V190H1276.69V192ZM1282.67 192H1285.67V190H1282.67V192ZM1288.66 192H1291.65V190H1288.66V192ZM1294.65 192H1297.64V190H1294.65V192ZM1300.63 192H1303.63V190H1300.63V192ZM1306.62 192H1309.61V190H1306.62V192ZM1312.61 192H1315.6V190H1312.61V192ZM1318.59 192H1321.59V190H1318.59V192ZM1324.58 192H1327.57V190H1324.58V192ZM1330.57 192H1333.56V190H1330.57V192ZM1336.55 192H1339.55V190H1336.55V192ZM1342.54 192H1345.53V190H1342.54V192ZM1348.53 192H1351.52V190H1348.53V192ZM1354.51 192H1357.51V190H1354.51V192ZM1360.5 192H1362V190H1360.5V192ZM1362 192C1362.55 192 1363.1 191.978 1363.65 191.936L1363.49 189.942C1363 189.98 1362.5 190 1362 190V192ZM1366.9 191.424C1367.98 191.166 1369.03 190.824 1370.04 190.406L1369.27 188.559C1368.36 188.937 1367.41 189.245 1366.44 189.479L1366.9 191.424ZM1372.97 188.908C1373.91 188.33 1374.8 187.682 1375.64 186.969L1374.34 185.448C1373.58 186.094 1372.78 186.681 1371.93 187.203L1372.97 188.908ZM1377.97 184.639C1378.68 183.805 1379.33 182.914 1379.91 181.974L1378.2 180.928C1377.68 181.778 1377.09 182.584 1376.45 183.339L1377.97 184.639ZM1381.41 179.039C1381.82 178.031 1382.17 176.983 1382.42 175.904L1380.48 175.438C1380.25 176.415 1379.94 177.361 1379.56 178.273L1381.41 179.039ZM1382.94 172.648C1382.98 172.104 1383 171.554 1383 171H1381C1381 171.503 1380.98 172.001 1380.94 172.493L1382.94 172.648ZM1383 171V169.482H1381V171H1383ZM1383 166.446V163.411H1381V166.446H1383ZM1383 160.375V157.339H1381V160.375H1383ZM1383 154.304V151.268H1381V154.304H1383ZM1383 148.232V145.196H1381V148.232H1383ZM1383 142.161V139.125H1381V142.161H1383ZM1383 136.089V133.054H1381V136.089H1383ZM1383 130.018V126.982H1381V130.018H1383ZM1383 123.946V120.911H1381V123.946H1383ZM1383 117.875V114.839H1381V117.875H1383ZM1383 111.804V108.768H1381V111.804H1383ZM1383 105.732V102.696H1381V105.732H1383ZM1383 99.6607V96.625H1381V99.6607H1383ZM1383 93.5893V90.5536H1381V93.5893H1383ZM1383 87.5179V84.4822H1381V87.5179H1383ZM1383 81.4464V78.4107H1381V81.4464H1383ZM1383 75.375V72.3393H1381V75.375H1383ZM1383 69.3036V66.2679H1381V69.3036H1383ZM1383 63.2322V60.1964H1381V63.2322H1383ZM1383 57.1607V54.125H1381V57.1607H1383ZM1383 51.0893V48.0536H1381V51.0893H1383ZM1383 45.0179V41.9822H1381V45.0179H1383ZM1383 38.9464V35.9107H1381V38.9464H1383ZM1383 32.875V29.8393H1381V32.875H1383ZM1383 26.8036V23.7678H1381V26.8036H1383ZM1383 20.7321V17.6964H1381V20.7321H1383ZM1383 14.6607V11.6249H1381V14.6607H1383ZM1383 8.58924V5.55351H1381V8.58924H1383ZM1383 2.51779V1H1381V2.51779H1383Z" fill="#464A59"/>
<path d="M923.707 0.292894C923.317 -0.0976304 922.683 -0.0976303 922.293 0.292894L915.929 6.65686C915.538 7.04738 915.538 7.68054 915.929 8.07107C916.319 8.46159 916.953 8.46159 917.343 8.07107L923 2.41421L928.657 8.07107C929.047 8.46159 929.681 8.46159 930.071 8.07107C930.462 7.68054 930.462 7.04738 930.071 6.65685L923.707 0.292894ZM924 192L924 190.508L922 190.508L922 192L924 192ZM924 187.523L924 184.539L922 184.539L922 187.523L924 187.523ZM924 181.555L924 178.57L922 178.57L922 181.555L924 181.555ZM924 175.586L924 172.602L922 172.602L922 175.586L924 175.586ZM924 169.617L924 166.633L922 166.633L922 169.617L924 169.617ZM924 163.648L924 160.664L922 160.664L922 163.648L924 163.648ZM924 157.68L924 154.695L922 154.695L922 157.68L924 157.68ZM924 151.711L924 148.727L922 148.727L922 151.711L924 151.711ZM924 145.742L924 142.758L922 142.758L922 145.742L924 145.742ZM924 139.773L924 136.789L922 136.789L922 139.773L924 139.773ZM924 133.805L924 130.82L922 130.82L922 133.805L924 133.805ZM924 127.836L924 124.852L922 124.852L922 127.836L924 127.836ZM924 121.867L924 118.883L922 118.883L922 121.867L924 121.867ZM924 115.898L924 112.914L922 112.914L922 115.898L924 115.898ZM924 109.93L924 106.945L922 106.945L922 109.93L924 109.93ZM924 103.961L924 100.977L922 100.977L922 103.961L924 103.961ZM924 97.9922L924 95.0078L922 95.0078L922 97.9922L924 97.9922ZM924 92.0234L924 89.0391L922 89.0391L922 92.0234L924 92.0234ZM924 86.0547L924 83.0703L922 83.0703L922 86.0547L924 86.0547ZM924 80.0859L924 77.1016L922 77.1016L922 80.0859L924 80.0859ZM924 74.1172L924 71.1328L922 71.1328L922 74.1172L924 74.1172ZM924 68.1484L924 65.1641L922 65.1641L922 68.1484L924 68.1484ZM924 62.1797L924 59.1953L922 59.1953L922 62.1797L924 62.1797ZM924 56.2109L924 53.2266L922 53.2266L922 56.2109L924 56.2109ZM924 50.2422L924 47.2578L922 47.2578L922 50.2422L924 50.2422ZM924 44.2734L924 41.2891L922 41.2891L922 44.2734L924 44.2734ZM924 38.3047L924 35.3203L922 35.3203L922 38.3047L924 38.3047ZM924 32.3359L924 29.3516L922 29.3516L922 32.3359L924 32.3359ZM924 26.3672L924 23.3828L922 23.3828L922 26.3672L924 26.3672ZM924 20.3984L924 17.4141L922 17.4141L922 20.3984L924 20.3984ZM924 14.4297L924 11.4453L922 11.4453L922 14.4297L924 14.4297ZM924 8.46094L924 5.47656L922 5.47656L922 8.46094L924 8.46094ZM924 2.49219L924 1L922 1L922 2.49219L924 2.49219Z" fill="#464A59"/>
<path d="M463.707 0.292894C463.317 -0.0976304 462.683 -0.0976303 462.293 0.292894L455.929 6.65686C455.538 7.04738 455.538 7.68054 455.929 8.07107C456.319 8.46159 456.953 8.46159 457.343 8.07107L463 2.41421L468.657 8.07107C469.047 8.46159 469.681 8.46159 470.071 8.07107C470.462 7.68054 470.462 7.04738 470.071 6.65685L463.707 0.292894ZM464 192L464 190.508L462 190.508L462 192L464 192ZM464 187.523L464 184.539L462 184.539L462 187.523L464 187.523ZM464 181.555L464 178.57L462 178.57L462 181.555L464 181.555ZM464 175.586L464 172.602L462 172.602L462 175.586L464 175.586ZM464 169.617L464 166.633L462 166.633L462 169.617L464 169.617ZM464 163.648L464 160.664L462 160.664L462 163.648L464 163.648ZM464 157.68L464 154.695L462 154.695L462 157.68L464 157.68ZM464 151.711L464 148.727L462 148.727L462 151.711L464 151.711ZM464 145.742L464 142.758L462 142.758L462 145.742L464 145.742ZM464 139.773L464 136.789L462 136.789L462 139.773L464 139.773ZM464 133.805L464 130.82L462 130.82L462 133.805L464 133.805ZM464 127.836L464 124.852L462 124.852L462 127.836L464 127.836ZM464 121.867L464 118.883L462 118.883L462 121.867L464 121.867ZM464 115.898L464 112.914L462 112.914L462 115.898L464 115.898ZM464 109.93L464 106.945L462 106.945L462 109.93L464 109.93ZM464 103.961L464 100.977L462 100.977L462 103.961L464 103.961ZM464 97.9922L464 95.0078L462 95.0078L462 97.9922L464 97.9922ZM464 92.0234L464 89.0391L462 89.0391L462 92.0234L464 92.0234ZM464 86.0547L464 83.0703L462 83.0703L462 86.0547L464 86.0547ZM464 80.0859L464 77.1016L462 77.1016L462 80.0859L464 80.0859ZM464 74.1172L464 71.1328L462 71.1328L462 74.1172L464 74.1172ZM464 68.1484L464 65.1641L462 65.1641L462 68.1484L464 68.1484ZM464 62.1797L464 59.1953L462 59.1953L462 62.1797L464 62.1797ZM464 56.2109L464 53.2266L462 53.2266L462 56.2109L464 56.2109ZM464 50.2422L464 47.2578L462 47.2578L462 50.2422L464 50.2422ZM464 44.2734L464 41.2891L462 41.2891L462 44.2734L464 44.2734ZM464 38.3047L464 35.3203L462 35.3203L462 38.3047L464 38.3047ZM464 32.3359L464 29.3516L462 29.3516L462 32.3359L464 32.3359ZM464 26.3672L464 23.3828L462 23.3828L462 26.3672L464 26.3672ZM464 20.3984L464 17.4141L462 17.4141L462 20.3984L464 20.3984ZM464 14.4297L464 11.4453L462 11.4453L462 14.4297L464 14.4297ZM464 8.46094L464 5.47656L462 5.47656L462 8.46094L464 8.46094ZM464 2.49219L464 1L462 1L462 2.49219L464 2.49219Z" fill="#464A59"/>
<path d="M238.707 191.707C239.098 191.317 239.098 190.683 238.707 190.293L232.343 183.929C231.953 183.538 231.319 183.538 230.929 183.929C230.538 184.319 230.538 184.953 230.929 185.343L236.586 191L230.929 196.657C230.538 197.047 230.538 197.681 230.929 198.071C231.319 198.462 231.953 198.462 232.343 198.071L238.707 191.707ZM212 192H213.625V190H212V192ZM216.875 192H220.125V190H216.875V192ZM223.375 192H226.625V190H223.375V192ZM229.875 192H233.125V190H229.875V192ZM236.375 192H238V190H236.375V192Z" fill="#464A59"/>
<path d="M687.707 191.707C688.098 191.317 688.098 190.683 687.707 190.293L681.343 183.929C680.953 183.538 680.319 183.538 679.929 183.929C679.538 184.319 679.538 184.953 679.929 185.343L685.586 191L679.929 196.657C679.538 197.047 679.538 197.681 679.929 198.071C680.319 198.462 680.953 198.462 681.343 198.071L687.707 191.707ZM661 192H662.625V190H661V192ZM665.875 192H669.125V190H665.875V192ZM672.375 192H675.625V190H672.375V192ZM678.875 192H682.125V190H678.875V192ZM685.375 192H687V190H685.375V192Z" fill="#464A59"/>
<path d="M1155.71 191.707C1156.1 191.317 1156.1 190.683 1155.71 190.293L1149.34 183.929C1148.95 183.538 1148.32 183.538 1147.93 183.929C1147.54 184.319 1147.54 184.953 1147.93 185.343L1153.59 191L1147.93 196.657C1147.54 197.047 1147.54 197.681 1147.93 198.071C1148.32 198.462 1148.95 198.462 1149.34 198.071L1155.71 191.707ZM1129 192H1130.62V190H1129V192ZM1133.87 192H1137.12V190H1133.87V192ZM1140.37 192H1143.62V190H1140.37V192ZM1146.87 192H1150.12V190H1146.87V192ZM1153.37 192H1155V190H1153.37V192Z" fill="#464A59"/>
</svg>
