<svg width="16" height="16" viewBox="0 0 16 16" fill="none" xmlns="http://www.w3.org/2000/svg">
<path fill-rule="evenodd" clip-rule="evenodd" d="M2.55319 7.06703e-05L13.5319 0C13.9204 0 14.3085 0.0570457 14.7141 0.246149C15.2003 0.472793 15.4581 0.830026 15.6388 1.09421C15.6528 1.11476 15.666 1.13595 15.6781 1.15762C15.8905 1.53568 16 1.94388 16 2.38298C16 2.80019 15.9007 3.25474 15.6781 3.65091C15.676 3.65476 15.6739 3.65846 15.6717 3.66224L8.7355 15.5771C8.58254 15.8399 8.30102 16.001 7.99698 16C7.69295 15.9989 7.41255 15.8357 7.26148 15.5719L0.45264 3.68244C0.450683 3.67922 0.448725 3.67601 0.446768 3.67272C0.290941 3.41595 0.0499661 3.01887 0.00781111 2.50644C-0.0309183 2.03518 0.0749929 1.56302 0.311774 1.15363C0.548555 0.744178 0.90502 0.416865 1.33377 0.216507C1.79349 0.00167782 2.25936 7.06703e-05 2.55319 7.06703e-05ZM7.14892 1.70214H2.55319C2.25125 1.70214 2.13534 1.72073 2.05432 1.75862C1.94226 1.81091 1.84816 1.89697 1.78524 2.00575C1.72232 2.1146 1.69387 2.24071 1.70422 2.36697C1.71016 2.43932 1.73966 2.52209 1.91366 2.80907C1.9173 2.81508 1.92086 2.82116 1.92436 2.82725L7.14892 11.9503V1.70214ZM8.85106 1.70214V11.9953L14.1966 2.81278C14.257 2.70316 14.2979 2.54475 14.2979 2.38298C14.2979 2.25176 14.2707 2.13781 14.2098 2.02036C14.146 1.92857 14.1072 1.87998 14.0746 1.84671C14.0467 1.81826 14.0253 1.80301 13.9949 1.78889C13.8686 1.72996 13.7392 1.70214 13.5319 1.70214H8.85106Z" fill="#FFD438"/>
</svg>
