<svg width="189" height="53" viewBox="0 0 189 53" fill="none" xmlns="http://www.w3.org/2000/svg">
<path d="M63.492 30.372V21.636H67.44V30.372H63.492ZM59.012 36V32.92H61.224V36H59.012ZM59.012 19.06V15.98H61.224V19.06H59.012ZM59.012 19.06V15.98H61.224V19.06H59.012ZM67.44 21.636H63.492C63.492 20.8147 63.2867 20.18 62.876 19.732C62.484 19.284 61.9333 19.06 61.224 19.06V15.98C62.4187 15.98 63.4827 16.2227 64.416 16.708C65.3493 17.1933 66.0867 17.8653 66.628 18.724C67.1693 19.5827 67.44 20.5533 67.44 21.636ZM67.44 30.316C67.44 31.4173 67.1693 32.3973 66.628 33.256C66.0867 34.096 65.3493 34.768 64.416 35.272C63.4827 35.7573 62.4187 36 61.224 36V32.92C61.9333 32.92 62.484 32.696 62.876 32.248C63.2867 31.7813 63.492 31.1373 63.492 30.316H67.44ZM55.68 36V15.98H59.628V36H55.68ZM77.8656 30.148V27.432H81.8136V30.148H77.8656ZM69.7456 30.148V27.432H73.6936V30.148H69.7456ZM75.6256 24.24V21.16H75.9056V24.24H75.6256ZM75.6256 36.42V33.34H75.9056V36.42H75.6256ZM69.7456 27.46C69.7456 26.2467 70.007 25.1733 70.5296 24.24C71.0523 23.288 71.7523 22.5413 72.6296 22C73.5256 21.44 74.543 21.16 75.6816 21.16V24.24C75.047 24.24 74.5523 24.52 74.1976 25.08C73.8616 25.64 73.6936 26.4333 73.6936 27.46H69.7456ZM81.8136 27.46H77.8656C77.8656 26.4333 77.6883 25.64 77.3336 25.08C76.9976 24.52 76.5123 24.24 75.8776 24.24V21.16C77.0163 21.16 78.0243 21.44 78.9016 22C79.7976 22.5413 80.507 23.288 81.0296 24.24C81.5523 25.1733 81.8136 26.2467 81.8136 27.46ZM69.7456 30.12H73.6936C73.6936 31.128 73.8616 31.9213 74.1976 32.5C74.5523 33.06 75.047 33.34 75.6816 33.34V36.42C74.543 36.42 73.5256 36.1493 72.6296 35.608C71.7523 35.048 71.0523 34.292 70.5296 33.34C70.007 32.388 69.7456 31.3147 69.7456 30.12ZM81.8136 30.12C81.8136 31.3147 81.5523 32.388 81.0296 33.34C80.507 34.292 79.7976 35.048 78.9016 35.608C78.0243 36.1493 77.0163 36.42 75.8776 36.42V33.34C76.5123 33.34 76.9976 33.06 77.3336 32.5C77.6883 31.9213 77.8656 31.128 77.8656 30.12H81.8136ZM92.2003 36.392V21.58H96.1483V36.392H92.2003ZM84.0803 30.316V26.676H88.0283V30.316H84.0803ZM88.0283 26.704H84.0803C84.0803 25.64 84.2856 24.688 84.6963 23.848C85.1256 23.008 85.695 22.3453 86.4043 21.86C87.1323 21.3747 87.9536 21.132 88.8683 21.132L90.0163 24.24C89.4003 24.24 88.915 24.464 88.5603 24.912C88.2056 25.3413 88.0283 25.9387 88.0283 26.704ZM93.4323 26.9H92.2003C92.2003 26.0973 91.995 25.4533 91.5843 24.968C91.1923 24.4827 90.6696 24.24 90.0163 24.24L88.8683 21.132C89.727 21.132 90.5016 21.384 91.1923 21.888C91.883 22.392 92.4243 23.0827 92.8163 23.96C93.227 24.8187 93.4323 25.7987 93.4323 26.9ZM88.0283 30.288C88.0283 31.0533 88.2056 31.66 88.5603 32.108C88.915 32.5373 89.4003 32.752 90.0163 32.752L88.8683 35.86C87.9536 35.86 87.1323 35.6173 86.4043 35.132C85.695 34.6467 85.1256 33.984 84.6963 33.144C84.2856 32.304 84.0803 31.352 84.0803 30.288H88.0283ZM93.4323 30.064C93.4323 31.1653 93.227 32.1547 92.8163 33.032C92.4243 33.8907 91.883 34.5813 91.1923 35.104C90.5016 35.608 89.727 35.86 88.8683 35.86L90.0163 32.752C90.6696 32.752 91.1923 32.5093 91.5843 32.024C91.995 31.5387 92.2003 30.8853 92.2003 30.064H93.4323ZM96.1483 36.168C96.1483 37.2693 95.887 38.2493 95.3643 39.108C94.8416 39.9853 94.123 40.676 93.2083 41.18C92.2936 41.684 91.267 41.936 90.1283 41.936V38.856C90.7443 38.856 91.239 38.604 91.6123 38.1C92.0043 37.6147 92.2003 36.9707 92.2003 36.168H96.1483ZM88.0563 36.56C88.1496 37.288 88.383 37.848 88.7563 38.24C89.1483 38.6507 89.6056 38.856 90.1283 38.856V41.936C89.1576 41.936 88.271 41.74 87.4683 41.348C86.6843 40.9747 86.0403 40.4333 85.5363 39.724C85.051 39.0147 84.7243 38.1747 84.5563 37.204L88.0563 36.56ZM99.2933 36V21.58H103.241V36H99.2933ZM107.413 36V26.676H111.361V36H107.413ZM107.413 26.704C107.413 25.9387 107.236 25.3413 106.881 24.912C106.527 24.464 106.041 24.24 105.425 24.24L106.573 21.132C107.488 21.132 108.3 21.3747 109.009 21.86C109.737 22.3453 110.307 23.008 110.717 23.848C111.147 24.688 111.361 25.64 111.361 26.704H107.413ZM102.009 26.9C102.009 25.7987 102.205 24.8187 102.597 23.96C103.008 23.0827 103.559 22.392 104.249 21.888C104.94 21.384 105.715 21.132 106.573 21.132L105.425 24.24C104.772 24.24 104.24 24.4827 103.829 24.968C103.437 25.4533 103.241 26.0973 103.241 26.9H102.009ZM115.704 29.812V27.516H125.56V29.812H115.704ZM119.54 36.448V33.368H119.792V36.448H119.54ZM113.632 30.176V27.404H117.58V30.176H113.632ZM121.612 27.516V26.9H125.56V27.516H121.612ZM125.56 26.9H121.612C121.612 26.0787 121.426 25.4253 121.052 24.94C120.679 24.4547 120.175 24.212 119.54 24.212V21.132C120.698 21.132 121.724 21.384 122.62 21.888C123.535 22.392 124.254 23.0827 124.776 23.96C125.299 24.8187 125.56 25.7987 125.56 26.9ZM121.864 31.072L125.364 31.716C125.215 32.6867 124.888 33.5267 124.384 34.236C123.88 34.9453 123.236 35.496 122.452 35.888C121.668 36.2613 120.782 36.448 119.792 36.448V33.368C120.334 33.368 120.791 33.172 121.164 32.78C121.538 32.3693 121.771 31.8 121.864 31.072ZM113.632 27.432C113.632 26.2187 113.894 25.1453 114.416 24.212C114.939 23.26 115.639 22.5133 116.516 21.972C117.412 21.412 118.43 21.132 119.568 21.132V24.212C118.934 24.212 118.439 24.5013 118.084 25.08C117.748 25.64 117.58 26.424 117.58 27.432H113.632ZM113.632 30.148H117.58C117.58 31.156 117.748 31.9493 118.084 32.528C118.439 33.088 118.934 33.368 119.568 33.368V36.448C118.43 36.448 117.412 36.1773 116.516 35.636C115.639 35.076 114.939 34.32 114.416 33.368C113.894 32.416 113.632 31.3427 113.632 30.148ZM134.942 32.08C134.942 31.7067 134.765 31.3987 134.41 31.156C134.074 30.8947 133.636 30.6613 133.094 30.456C132.553 30.232 131.984 29.9987 131.386 29.756C130.789 29.4947 130.21 29.1867 129.65 28.832C129.109 28.4773 128.67 28.0387 128.334 27.516C127.998 26.9747 127.83 26.3213 127.83 25.556C127.83 25.556 127.952 25.556 128.194 25.556C128.456 25.556 128.764 25.556 129.118 25.556C129.492 25.556 129.865 25.556 130.238 25.556C130.612 25.556 130.92 25.556 131.162 25.556C131.424 25.556 131.554 25.556 131.554 25.556C131.554 25.9293 131.722 26.2467 132.058 26.508C132.413 26.7507 132.861 26.984 133.402 27.208C133.944 27.4133 134.513 27.6467 135.11 27.908C135.726 28.1507 136.305 28.4493 136.846 28.804C137.388 29.1587 137.826 29.5973 138.162 30.12C138.517 30.6427 138.694 31.296 138.694 32.08C138.694 32.08 138.564 32.08 138.302 32.08C138.041 32.08 137.724 32.08 137.35 32.08C136.996 32.08 136.632 32.08 136.258 32.08C135.885 32.08 135.568 32.08 135.306 32.08C135.064 32.08 134.942 32.08 134.942 32.08ZM133.094 36.448V33.34C133.654 33.34 134.102 33.228 134.438 33.004C134.774 32.7613 134.942 32.4533 134.942 32.08H138.694C138.694 32.9573 138.461 33.732 137.994 34.404C137.546 35.0573 136.902 35.5613 136.062 35.916C135.241 36.2707 134.252 36.448 133.094 36.448ZM127.83 25.556C127.83 24.716 128.054 23.96 128.502 23.288C128.969 22.616 129.604 22.0933 130.406 21.72C131.209 21.328 132.105 21.132 133.094 21.132V24.212C132.665 24.212 132.301 24.3427 132.002 24.604C131.704 24.8653 131.554 25.1827 131.554 25.556H127.83ZM131.05 31.072C131.144 31.8 131.377 32.36 131.75 32.752C132.124 33.144 132.581 33.34 133.122 33.34V36.448C132.133 36.448 131.246 36.2613 130.462 35.888C129.678 35.496 129.034 34.9453 128.53 34.236C128.045 33.508 127.718 32.668 127.55 31.716L131.05 31.072ZM135.166 26.508C135.073 25.7613 134.84 25.192 134.466 24.8C134.093 24.408 133.636 24.212 133.094 24.212V21.132C134.084 21.132 134.97 21.328 135.754 21.72C136.538 22.0933 137.182 22.6347 137.686 23.344C138.19 24.0347 138.517 24.8747 138.666 25.864L135.166 26.508ZM143.28 36.336C142.645 36.336 142.113 36.1307 141.684 35.72C141.273 35.2907 141.068 34.7587 141.068 34.124C141.068 33.4893 141.273 32.9573 141.684 32.528C142.113 32.08 142.645 31.856 143.28 31.856C143.915 31.856 144.447 32.08 144.876 32.528C145.324 32.9573 145.548 33.4893 145.548 34.124C145.548 34.7587 145.324 35.2907 144.876 35.72C144.447 36.1307 143.915 36.336 143.28 36.336ZM148.621 36V21.58H152.569V36H148.621ZM156.741 36V26.676H160.689V36H156.741ZM156.741 26.704C156.741 25.9387 156.564 25.3413 156.209 24.912C155.855 24.464 155.369 24.24 154.753 24.24L155.901 21.132C156.816 21.132 157.628 21.3747 158.337 21.86C159.065 22.3453 159.635 23.008 160.045 23.848C160.475 24.688 160.689 25.64 160.689 26.704H156.741ZM151.337 26.9C151.337 25.7987 151.533 24.8187 151.925 23.96C152.336 23.0827 152.887 22.392 153.577 21.888C154.268 21.384 155.043 21.132 155.901 21.132L154.753 24.24C154.1 24.24 153.568 24.4827 153.157 24.968C152.765 25.4533 152.569 26.0973 152.569 26.9H151.337ZM148.621 36V15.532H152.569V36H148.621ZM175.062 21.58V36H171.114V21.58H175.062ZM166.942 21.58V30.904H162.994V21.58H166.942ZM166.942 30.876C166.942 31.6413 167.12 32.248 167.474 32.696C167.829 33.1253 168.314 33.34 168.93 33.34L167.782 36.448C166.868 36.448 166.046 36.2053 165.318 35.72C164.609 35.2347 164.04 34.572 163.61 33.732C163.2 32.892 162.994 31.94 162.994 30.876H166.942ZM172.346 30.652C172.346 31.7533 172.141 32.7427 171.73 33.62C171.338 34.4787 170.797 35.1693 170.106 35.692C169.416 36.196 168.641 36.448 167.782 36.448L168.93 33.34C169.584 33.34 170.106 33.0973 170.498 32.612C170.909 32.1267 171.114 31.4733 171.114 30.652H172.346ZM179.35 30.96V15.98H183.298V30.96H179.35ZM177.726 24.52V21.58H186.826V24.52H177.726ZM179.35 30.932H183.298C183.298 31.436 183.363 31.8747 183.494 32.248C183.643 32.6027 183.849 32.8733 184.11 33.06C184.371 33.2467 184.679 33.34 185.034 33.34L184.586 36.448C182.943 36.448 181.655 35.9627 180.722 34.992C179.807 34.0213 179.35 32.668 179.35 30.932ZM186.294 32.864L187.694 35.412C187.19 35.7667 186.677 36.028 186.154 36.196C185.65 36.364 185.127 36.448 184.586 36.448L185.034 33.34C185.277 33.34 185.501 33.3027 185.706 33.228C185.911 33.1347 186.107 33.0133 186.294 32.864Z" fill="#848A9C"/>
<path d="M30.366 19.5226C30.366 19.5226 29.973 15.4513 24.7749 15.863C24.7749 15.864 30.87 22.8796 30.366 19.5226Z" fill="#050B1C"/>
<path d="M28.694 0.78833C28.6891 0.811664 28.6858 0.835295 28.6841 0.859066L28.6743 0.863977C28.6871 0.819767 28.693 0.793242 28.694 0.78833Z" fill="#848A9C"/>
<path d="M3.20048 36.1258C2.48232 39.8228 4.53071 44.0758 8.70216 47.6273C8.71566 47.6357 8.72818 47.6456 8.7395 47.6568C11.4758 49.913 14.6495 51.5785 18.0609 52.5483C16.5765 51.6877 15.2245 50.6169 14.0467 49.3692C10.2318 45.3127 8.95269 40.3464 10.6219 36.0846C11.4486 33.9295 13.0384 32.1534 15.089 31.0938C12.7312 30.2479 10.7231 29.9148 8.43887 30.5937C5.62614 31.4219 3.72216 33.4389 3.20048 36.1258Z" fill="#848A9C"/>
<path d="M1.6935 25.1863C0.60102 27.3919 0.128461 29.8843 0.30137 32.4917C1.67679 29.7812 4.15648 27.7377 7.31601 26.7936C12.0563 25.3936 15.8819 27.0421 20.3128 28.949C21.7452 29.565 23.3387 30.2508 25.1022 30.8972C25.4539 31.0112 25.8144 31.1389 26.1828 31.2804L26.2339 31.2971L26.2536 31.3049C28.6114 32.1813 30.6932 32.6263 32.443 32.6253C33.3181 32.6321 34.1902 32.5227 35.0366 32.3001C34.2203 32.2253 33.4147 32.0605 32.6345 31.8089C29.417 30.7754 26.1504 28.3104 21.7127 23.5692C19.0159 20.6857 15.988 19.0067 12.9533 18.71C8.21593 18.2532 3.90104 20.7329 1.6935 25.1863Z" fill="#848A9C"/>
<path d="M17.2446 3.68846C9.39485 6.19271 3.59549 12.162 0.995946 19.3732C4.1879 16.0604 8.659 14.3205 13.3354 14.7763C17.3408 15.1693 21.2352 17.2727 24.6001 20.8675C31.0616 27.7701 34.4579 29.064 38.1804 28.1375C37.5482 27.4023 36.9622 26.6286 36.4258 25.8209C35.3844 24.2638 34.3125 22.179 33.1464 19.4468C31.6039 15.8373 29.9977 13.4245 28.2342 12.0687C28.2342 12.0687 23.991 8.35016 17.3192 8.36195C21.2696 7.37164 25.7309 5.28886 27.7822 2.6343C24.2346 2.24041 20.6438 2.59963 17.2446 3.68846V3.68846ZM30.3651 19.5225C30.8691 22.8795 24.775 15.8619 24.775 15.8619C29.9741 15.4522 30.3651 19.5225 30.3651 19.5225Z" fill="#848A9C"/>
<path d="M23.7768 25.6971C19.9826 22.0395 16.9606 20.6641 12.9227 21.4314C12.9227 21.4314 14.1724 19.1059 17.4803 19.1777C20.1329 19.2346 22.5183 22.8451 22.5183 22.8451C22.5183 22.8451 27.571 29.3548 23.7768 25.6971Z" fill="#848A9C"/>
</svg>
