<svg width="194" height="36" viewBox="0 0 194 36" fill="none" xmlns="http://www.w3.org/2000/svg">
<path d="M11.8813 1.80983C11.8562 1.61252 11.8928 1.41239 11.9863 1.2358C12.0798 1.05922 12.2259 0.914444 12.4052 0.820541C12.8465 0.7444 13.2949 0.714253 13.7427 0.730606H16.8446C20.7097 0.730606 22.6178 3.20324 22.6178 8.14969C22.6178 12.2867 20.6619 14.3541 16.701 14.3541H12.9304C12.215 14.3541 11.8801 14.1298 11.8801 13.6801L11.8813 1.80983ZM12.7402 15.1203C12.9782 15.0747 14.0764 15.1203 15.9366 15.1203C18.7359 15.2442 21.523 14.688 24.0485 13.5015C25.1539 13.0611 26.1153 12.3342 26.8291 11.3991C27.5429 10.464 27.9819 9.35625 28.0989 8.19526C28.2011 6.95871 27.9358 5.71962 27.3348 4.62687C26.7338 3.53412 25.8227 2.63421 24.7111 2.03527C22.2675 0.604852 19.4503 -0.0985475 16.6041 0.0111207C6.72778 0.0566881 1.33623 0.0566881 0.381605 0.0566881C0.143562 0.101056 0 0.190992 0 0.416431C0 0.641869 0.095708 0.730606 0.333751 0.730606C2.08315 0.711447 3.82882 0.892552 5.53511 1.27022C6.06028 1.45009 6.29832 1.89977 6.29832 2.66362L6.48973 24.6079C6.52372 24.9002 6.45793 25.1953 6.3026 25.4473C6.14727 25.6993 5.91111 25.894 5.63082 26.0013C3.96499 26.3442 2.27357 26.5551 0.573021 26.6321C0.334978 26.6321 0.191416 26.722 0.191416 26.9462C0.191416 27.1261 0.334978 27.216 0.573021 27.216H18.5612C18.895 27.216 19.0864 27.1261 19.0864 26.9007C19.0864 26.7664 18.8954 26.6764 18.5134 26.6309C16.8011 26.5353 15.0961 26.3399 13.4077 26.0457C12.4052 25.7759 11.8801 25.2818 11.8801 24.6067V15.9285C11.8478 15.6945 11.8985 15.4567 12.0236 15.2546C12.2416 15.136 12.4928 15.0889 12.7402 15.1203ZM35.6426 27.8888C37.548 27.9617 39.4095 27.3179 40.844 26.0901C42.2247 24.8274 43.0893 23.1179 43.2772 21.2791C43.325 20.875 43.1815 20.6951 42.8956 20.6951C42.7041 20.6951 42.5618 20.8294 42.514 21.1448C42.3696 22.9238 41.5331 24.5812 40.1765 25.7759C39.0542 26.6513 37.6524 27.1127 36.2169 27.0793C32.7812 27.0793 31.0634 24.6511 31.0634 19.7946C31.1112 19.2106 31.1591 18.7609 31.1591 18.5355H42.7005C43.0342 18.5355 43.1778 18.3556 43.1778 17.9958C43.2554 15.7216 42.5123 13.4931 41.0783 11.7004C40.4268 10.8959 39.5904 10.2528 38.6371 9.82316C37.6837 9.39356 36.6402 9.18957 35.5911 9.22772C34.3377 9.23146 33.1008 9.5078 31.9703 10.0367C30.8397 10.5656 29.8438 11.3338 29.0547 12.2855C27.2821 14.1908 26.311 16.68 26.3356 19.2549C26.2672 20.4355 26.4668 21.6162 26.9201 22.7124C27.3735 23.8087 28.0693 24.7934 28.9578 25.596C30.8078 27.1613 33.1974 27.9808 35.6426 27.8888V27.8888ZM35.4991 9.85847C37.9801 9.90284 39.1249 12.2867 39.0292 17.0533C39.0292 17.5474 38.7912 17.7728 38.3617 17.7728H31.9198C31.3947 17.7728 31.1566 17.5929 31.1566 17.1888C31.0595 15.324 31.4537 13.4661 32.3014 11.7927C32.5855 11.2023 33.0389 10.7052 33.6065 10.3618C34.1742 10.0185 34.8316 9.84361 35.4991 9.85847V9.85847ZM43.8428 10.3981C44.9147 10.3765 45.9818 10.5442 46.9926 10.8933C47.3742 11.1176 47.5656 11.6572 47.5656 12.4666L47.8037 24.7866C47.8509 25.1697 47.7567 25.5567 47.5381 25.8781C47.3195 26.1994 46.9908 26.434 46.611 26.5397C45.8091 26.6867 44.9932 26.747 44.1778 26.7196C43.9398 26.7196 43.7962 26.8095 43.7962 26.9894C43.7962 27.1249 43.8919 27.2136 44.13 27.2136H54.8173C55.0566 27.2136 55.1989 27.1237 55.2468 26.9894C55.2468 26.8095 55.1036 26.7196 54.8173 26.7196C52.9572 26.7196 52.0025 26.3155 52.0025 25.4605L51.9547 20.9637C51.8651 13.7257 53.3915 10.0839 56.5892 10.0839C58.3549 10.0839 59.2138 11.1176 59.2138 13.2317V25.4629C59.2138 26.3167 58.307 26.722 56.4456 26.722C56.1593 26.722 56.0161 26.8119 56.0161 26.9918C56.0161 27.1273 56.1597 27.216 56.4456 27.216H66.6569C66.9428 27.216 67.0864 27.1261 67.0864 26.9918C67.0864 26.8575 66.944 26.7676 66.6569 26.722C65.9415 26.6321 65.1783 26.5421 64.4151 26.4066C63.7943 26.2723 63.5084 25.9569 63.5084 25.4629L63.7464 14.4464C63.7733 13.7394 63.6421 13.0351 63.362 12.3827C63.0818 11.7304 62.6594 11.1456 62.1243 10.6691C61.5886 10.1627 60.952 9.76957 60.2541 9.51416C59.5562 9.25875 58.812 9.14655 58.0677 9.18455C56.8883 9.13482 55.7129 9.35019 54.6321 9.8141C53.5186 10.5646 52.6689 11.6324 52.1989 12.8719H52.0074C51.9117 11.4785 51.816 10.4437 51.7682 9.76973C51.7682 9.40999 51.5768 9.23012 51.1485 9.27449C47.8564 9.5443 45.4232 9.6798 43.8477 9.76973C43.6097 9.76973 43.4661 9.90524 43.4661 10.0395C43.4626 10.0889 43.4702 10.1384 43.4884 10.1845C43.5066 10.2307 43.535 10.2723 43.5715 10.3066C43.608 10.3408 43.6518 10.3667 43.6998 10.3825C43.7477 10.3984 43.7987 10.4037 43.849 10.3981H43.8428ZM66.5551 10.6679H68.7134C69.3343 10.6679 69.6202 10.8933 69.6202 11.3874C69.6202 11.5217 69.5723 13.276 69.5723 16.648V23.0346C69.5378 23.725 69.6612 24.4141 69.9336 25.052C70.2059 25.6898 70.6203 26.2603 71.1466 26.722C72.1408 27.4727 73.3749 27.855 74.6301 27.8012C75.9981 27.9345 77.3697 27.5834 78.4952 26.8119C79.3542 26.0477 79.7836 24.6087 79.7836 22.495C79.7836 22.0909 79.7836 21.4614 79.7358 20.562C79.6879 19.6627 79.6879 19.0331 79.6879 18.6734C79.6879 18.3592 79.5922 18.1793 79.402 18.1793C79.164 18.1793 79.0204 18.3592 79.0204 18.6734V21.9554C79.0204 25.1931 78.0658 26.8119 76.1099 26.8119C74.6301 26.8119 73.9148 25.5528 73.9148 23.0802V10.6223H78.3051C78.8302 10.6223 79.1161 10.4868 79.1161 10.1726C79.1161 9.8129 78.8781 9.63303 78.3529 9.63303H74.624C74.1471 9.63303 73.9086 9.40839 73.9086 8.95911C73.9086 8.01539 73.9086 6.80066 73.8608 5.22739C73.8129 3.69848 73.8129 2.61925 73.8129 1.9897C73.8129 1.67433 73.6693 1.49566 73.3356 1.49566C73.0497 1.49566 72.9061 1.67553 72.8583 1.9897C72.7446 3.87025 72.1543 5.69368 71.1405 7.29591C70.7165 8.13002 70.0529 8.82522 69.2308 9.29635C68.4088 9.76747 67.464 9.99408 66.5121 9.94841C66.1784 9.90404 65.9869 10.0383 65.9869 10.3081C65.9882 10.5336 66.1796 10.6679 66.5612 10.6679H66.5551ZM104.249 15.5688C104.297 16.3721 104.538 17.1531 104.953 17.8483C105.368 18.5436 105.944 19.1335 106.636 19.5703V19.7058C105.502 19.8967 104.472 20.4695 103.725 21.3247C103.296 21.9962 103.096 22.7833 103.152 23.5731C103.151 24.5475 103.464 25.4976 104.046 26.2886C104.628 27.0796 105.451 27.6714 106.397 27.9799V28.1154C104.774 28.7893 103.916 29.1946 103.82 29.239C103.486 29.3734 103.198 29.5962 102.987 29.8822C102.777 30.1683 102.652 30.5062 102.627 30.8578C102.627 32.1613 103.534 33.3305 105.395 34.3653C107.54 35.4725 109.936 36.0295 112.361 35.9842C114.567 36.1044 116.756 35.5376 118.612 34.3653C119.396 33.8658 120.037 33.1776 120.471 32.3666C120.906 31.5557 121.12 30.6492 121.093 29.7342C121.136 28.9175 120.992 28.1015 120.67 27.3467C120.347 26.5918 119.856 25.9173 119.231 25.373C117.555 24.1664 115.483 23.6063 113.41 23.7997C112.885 23.7997 112.026 23.7997 110.739 23.8896C109.784 23.934 108.878 23.9796 108.067 23.9796C105.729 23.9796 104.583 23.4399 104.583 22.3164C104.583 20.9673 105.538 20.2934 107.494 20.2934C108.172 20.3159 108.846 20.4219 109.497 20.6088C110.17 20.7663 110.857 20.8567 111.549 20.8786C113.507 20.9558 115.45 20.5211 117.178 19.6195C118.028 19.1622 118.738 18.4917 119.235 17.677C119.731 16.8624 119.997 15.933 120.003 14.9848C120.097 13.1413 118.952 11.3878 116.567 9.72417C116.329 9.58866 116.234 9.13899 116.234 8.2852C116.234 7.0261 116.52 6.39655 117.093 6.39655C117.124 6.39433 117.155 6.39858 117.185 6.40902C117.214 6.41947 117.241 6.43587 117.263 6.45715C117.286 6.47844 117.303 6.50413 117.315 6.53254C117.327 6.56094 117.332 6.59143 117.331 6.62199C117.301 6.83356 117.316 7.04889 117.376 7.25436C117.435 7.45983 117.538 7.65098 117.677 7.81573C117.816 7.98049 117.989 8.11527 118.184 8.21155C118.379 8.30784 118.592 8.36354 118.81 8.37513C119.02 8.39789 119.233 8.37317 119.431 8.30289C119.63 8.23261 119.809 8.11865 119.955 7.96982C120.234 7.65928 120.387 7.2595 120.385 6.84623C120.385 5.767 119.764 5.22739 118.619 5.22739C116.472 5.22739 115.469 6.62199 115.566 9.36442C114.407 9.07936 113.221 8.91338 112.027 8.86918C110.019 8.83446 108.068 9.52291 106.545 10.8034C105.822 11.3792 105.241 12.1065 104.845 12.9313C104.449 13.7562 104.247 14.6576 104.255 15.5688H104.249ZM112.366 9.36442C114.656 9.36442 115.802 11.343 115.802 15.3002C115.802 18.6274 114.609 20.291 112.222 20.291C111.726 20.3257 111.229 20.2508 110.766 20.0719C110.304 19.8929 109.889 19.6145 109.551 19.2573C108.714 17.9417 108.344 16.3924 108.501 14.8505C108.502 11.2075 109.789 9.36442 112.366 9.36442ZM113.225 27.9799C117.185 28.0698 119.19 29.1934 119.19 31.3519C119.186 32.0185 118.98 32.6691 118.597 33.2212C118.215 33.7734 117.674 34.2024 117.042 34.4541C115.496 35.1756 113.792 35.5153 112.08 35.4434C107.882 35.353 105.783 34.0492 105.782 31.5318C105.727 30.9429 105.857 30.3517 106.156 29.8373C106.454 29.3229 106.906 28.91 107.452 28.6538C109.311 28.0568 111.274 27.8273 113.225 27.9787V27.9799ZM130.784 19.436C130.753 17.2992 131.01 15.1677 131.547 13.0962C131.915 11.8886 132.755 10.8712 133.884 10.2638C134.231 10.0563 134.624 9.93299 135.029 9.90404C135.554 9.90404 135.841 10.0387 135.888 10.3081C135.936 10.3537 135.698 10.578 135.173 10.9377C134.896 11.1688 134.679 11.46 134.538 11.7879C134.397 12.1159 134.337 12.4715 134.362 12.8263C134.356 13.3248 134.543 13.8069 134.887 14.1754C135.085 14.4207 135.34 14.6176 135.63 14.7504C135.919 14.8831 136.237 14.9482 136.557 14.9404C136.893 14.9633 137.231 14.9168 137.548 14.8041C137.865 14.6913 138.155 14.5148 138.397 14.286C138.64 14.0571 138.831 13.7809 138.958 13.4754C139.085 13.1699 139.145 12.8417 139.134 12.5122C139.143 12.058 139.055 11.607 138.874 11.1885C138.693 10.7701 138.423 10.3937 138.083 10.0839C137.719 9.76192 137.286 9.52244 136.816 9.38253C136.346 9.24263 135.85 9.20574 135.364 9.27449C134.762 9.30342 134.173 9.45907 133.638 9.73079C133.103 10.0025 132.634 10.3839 132.263 10.849C131.689 11.672 131.194 12.545 130.785 13.4571H130.641C130.641 12.4678 130.593 11.343 130.546 10.0395C130.546 9.5443 130.308 9.32006 129.878 9.36562C125.823 9.6798 123.436 9.8153 122.769 9.85967C122.483 9.85967 122.339 9.99397 122.339 10.2194C122.339 10.3549 122.482 10.4892 122.769 10.4892C123.775 10.4589 124.778 10.6114 125.727 10.9389C126.062 11.1188 126.252 11.7039 126.252 12.6477L126.396 24.8789C126.396 25.7327 126.206 26.228 125.727 26.4078C124.766 26.577 123.793 26.6672 122.817 26.6776C122.53 26.6776 122.387 26.7676 122.387 26.9474C122.387 27.1717 122.531 27.2616 122.769 27.2616H134.888C135.174 27.2616 135.318 27.1717 135.318 26.9474C135.318 26.7676 135.174 26.6776 134.888 26.6776C132.025 26.6776 130.641 26.228 130.641 25.2842L130.784 19.436ZM140.756 14.3097C140.755 14.989 141.009 15.645 141.471 16.1528C141.696 16.4045 141.975 16.6038 142.289 16.7359C142.603 16.8681 142.943 16.9299 143.285 16.9166C143.604 16.9305 143.922 16.8776 144.218 16.7614C144.514 16.6451 144.782 16.4683 145.002 16.2427C145.223 16.0332 145.396 15.7809 145.511 15.5022C145.626 15.2234 145.68 14.9242 145.67 14.6239C145.678 14.1834 145.55 13.7507 145.304 13.3819C145.057 13.013 144.703 12.7251 144.287 12.5553C144.072 12.4595 143.848 12.384 143.618 12.3299C143.38 12.2855 143.285 12.1944 143.285 12.0601C143.285 11.6556 143.762 11.1611 144.717 10.5768C145.557 10.032 146.527 9.70665 147.533 9.63183C149.87 9.5419 151.063 10.4413 151.063 12.3755V15.5676C151.063 16.7823 150.204 17.4562 148.534 17.6361C146.691 17.7879 144.878 18.1811 143.142 18.8053C142.289 19.1667 141.537 19.7216 140.947 20.4241C140.308 21.1504 139.953 22.0745 139.946 23.0322C139.901 23.6733 140.002 24.3161 140.241 24.9146C140.481 25.5132 140.852 26.0525 141.33 26.4942C142.354 27.3001 143.642 27.7156 144.956 27.6633C146.199 27.7392 147.443 27.5234 148.583 27.0338C149.452 26.52 150.213 25.8484 150.825 25.0552C150.968 24.7854 151.063 24.6511 151.16 24.6511C151.257 24.6511 151.35 24.7866 151.493 25.0552C151.748 25.7796 152.232 26.4057 152.876 26.8424C153.52 27.2792 154.289 27.5037 155.073 27.4835C156.173 27.5642 157.272 27.3131 158.221 26.764C158.666 26.3348 159.005 25.8119 159.212 25.2352C159.419 24.6584 159.488 24.0432 159.414 23.4364V20.5584C159.414 20.1543 159.318 19.9289 159.08 19.9289C158.889 19.9289 158.794 20.1543 158.794 20.5584C158.794 20.8282 158.794 21.2779 158.746 21.9074C158.698 22.537 158.698 23.031 158.698 23.3464C158.698 25.4605 158.079 26.5385 156.885 26.5385C155.93 26.5385 155.453 25.6847 155.453 24.0203V13.7701C155.468 13.1202 155.32 12.4766 155.02 11.8962C154.72 11.3159 154.279 10.8166 153.735 10.4425C152.225 9.46953 150.435 8.9966 148.63 9.09342C146.75 9.06159 144.899 9.54425 143.286 10.4868C142.545 10.8341 141.916 11.375 141.47 12.0497C141.023 12.7243 140.777 13.5065 140.757 14.3097H140.756ZM144.429 22.9435C144.415 21.8577 144.695 20.7875 145.24 19.8413C145.46 19.4241 145.778 19.0638 146.168 18.79C146.558 18.5163 147.009 18.337 147.483 18.2669C148.39 18.1325 149.106 18.0426 149.631 17.9071C149.961 17.8419 150.282 17.7359 150.585 17.5917C150.673 17.5418 150.77 17.5111 150.871 17.5018C151.015 17.5018 151.061 17.7716 151.061 18.3556V22.5826C151.052 23.7172 150.61 24.8076 149.821 25.6404C149.445 26.0555 148.982 26.3867 148.463 26.6116C147.944 26.8364 147.382 26.9498 146.815 26.9438C145.242 26.945 144.431 25.596 144.431 22.9435H144.429ZM82.8328 14.2197C82.8153 14.9019 83.0721 15.5636 83.5481 16.0628C83.785 16.3119 84.0733 16.509 84.394 16.6409C84.7147 16.7728 85.0605 16.8365 85.4083 16.8279C85.7273 16.8419 86.0456 16.789 86.3419 16.6727C86.6382 16.5565 86.9056 16.3796 87.1261 16.154C87.3423 15.9508 87.5133 15.7062 87.6284 15.4355C87.7434 15.1648 87.8001 14.8738 87.7949 14.5807C87.7971 14.1295 87.6622 13.6879 87.4072 13.3117C87.1523 12.9356 86.7889 12.6419 86.3629 12.4678C86.3151 12.4678 86.1236 12.3779 85.742 12.2879C85.504 12.198 85.3604 12.1524 85.3604 12.0181C85.3604 11.614 85.8378 11.0744 86.7924 10.4892C87.6496 9.9497 88.6367 9.63957 89.655 9.58986C91.9925 9.49993 93.1386 10.3549 93.1386 12.2879V15.48C93.1386 16.6936 92.2796 17.4131 90.6097 17.5929C88.7825 17.7444 86.9848 18.1377 85.266 18.7621C84.3726 19.1216 83.5852 19.6933 82.9751 20.4253C82.3708 21.1329 82.0338 22.022 82.0205 22.9435C81.9802 23.5909 82.0828 24.2391 82.3214 24.8443C82.56 25.4495 82.929 25.9974 83.4033 26.451C84.4417 27.2644 85.7477 27.68 87.0771 27.6202C88.3229 27.6737 89.5645 27.4426 90.7029 26.945C91.5662 26.4591 92.3143 25.7998 92.8981 25.0108C93.0416 24.741 93.184 24.6067 93.2797 24.6067C93.3754 24.6067 93.4711 24.7422 93.5656 25.0108C93.8199 25.735 94.3041 26.361 94.9476 26.7977C95.5911 27.2344 96.3604 27.4591 97.1436 27.4391C98.2604 27.541 99.3812 27.2887 100.34 26.7196C100.773 26.2842 101.101 25.7596 101.3 25.1842C101.498 24.6087 101.562 23.9972 101.487 23.3944V20.4697C101.487 20.0656 101.392 19.8401 101.153 19.8401C100.963 19.8401 100.868 20.0644 100.868 20.4697C100.868 20.7838 100.82 21.2347 100.82 21.8643V23.3032C100.82 25.4173 100.2 26.4954 99.0062 26.4954C98.0524 26.4954 97.5751 25.6412 97.5743 23.9328V13.6813C97.5818 13.0164 97.4199 12.3601 97.1034 11.7714C96.7868 11.1828 96.3254 10.6804 95.7607 10.3093C94.2603 9.40221 92.5128 8.96303 90.7508 9.05025C88.8711 9.01255 87.0188 9.49564 85.4083 10.4437C84.6779 10.7973 84.0554 11.3322 83.6032 11.9949C83.151 12.6577 82.8849 13.4249 82.8315 14.2197H82.8328ZM86.5543 22.8536C86.5403 21.7677 86.8201 20.6975 87.3654 19.7514C87.5943 19.3455 87.9156 18.9965 88.3045 18.7314C88.6935 18.4663 89.1396 18.2922 89.6084 18.2225C90.3306 18.123 91.0473 17.9881 91.7557 17.8184C92.071 17.7776 92.3774 17.6865 92.6625 17.5486C92.7552 17.5114 92.8508 17.4813 92.9484 17.4586C93.0919 17.4586 93.1876 17.7284 93.1876 18.3124V22.4938C93.1781 23.6285 92.7358 24.7189 91.9471 25.5516C91.5706 25.9818 91.1018 26.3257 90.574 26.5589C90.0461 26.792 89.4722 26.9087 88.893 26.9007C87.3163 26.8995 86.5531 25.5528 86.5531 22.8536H86.5543ZM179.692 13.6358C179.548 13.6358 179.501 13.6358 179.501 13.5914C179.502 12.9665 179.356 12.3498 179.075 11.7886C178.794 11.2274 178.385 10.7366 177.879 10.3537C176.779 9.59328 175.457 9.19892 174.11 9.22892C172.845 9.15822 171.592 9.5056 170.554 10.2151C169.515 10.9247 168.751 11.9551 168.385 13.1405H168.194C168.147 11.656 168.099 10.5324 168.099 9.8129C168.099 9.45316 167.909 9.31766 167.479 9.36323C164.139 9.58746 161.712 9.6774 160.226 9.76734C159.94 9.76734 159.797 9.90284 159.797 10.1271C159.797 10.3069 159.94 10.3969 160.226 10.4425C161.293 10.4426 162.348 10.6569 163.327 11.072C163.613 11.2519 163.708 11.7915 163.708 12.6453V24.6966C163.781 25.2634 163.646 25.837 163.327 26.3155C162.436 26.6082 161.499 26.745 160.559 26.7196C160.225 26.7196 160.081 26.8095 160.081 26.9894C160.081 27.1249 160.225 27.2136 160.511 27.2136H170.531C170.864 27.2136 171.008 27.1237 171.008 26.9894C171.008 26.8551 170.864 26.7652 170.531 26.7196C169.982 26.6842 169.438 26.5938 168.909 26.4498C168.668 26.3866 168.457 26.2453 168.309 26.0492C168.162 25.853 168.087 25.6137 168.098 25.3706V21.7731C168.013 19.2401 168.221 16.7059 168.718 14.2185C169.434 11.5205 170.818 10.1726 172.768 10.1726C174.295 10.1726 175.058 11.1164 175.058 13.0506L174.963 25.3706C174.82 26.2699 173.913 26.7196 172.242 26.7196C171.909 26.7196 171.765 26.8095 171.765 26.9894C171.765 27.1249 171.909 27.2136 172.242 27.2136H181.881C182.214 27.2136 182.358 27.1237 182.358 26.9894C182.358 26.8551 182.214 26.7652 181.881 26.7196C181.332 26.6842 180.788 26.5938 180.259 26.4498C180.018 26.3866 179.807 26.2453 179.659 26.0492C179.512 25.853 179.437 25.6137 179.447 25.3706V21.6388C179.447 13.7245 180.927 9.8129 183.932 9.90284C185.698 9.94721 186.605 10.9821 186.605 12.9606L186.461 25.3706C186.461 26.2699 185.507 26.7196 183.599 26.7196C183.265 26.7196 183.121 26.8095 183.121 26.9894C183.121 27.1249 183.265 27.2136 183.599 27.2136H193.475C193.809 27.2136 194 27.1237 194 26.9894C194 26.8095 193.809 26.7196 193.475 26.7196C191.567 26.7196 190.66 26.2699 190.66 25.3706L190.946 14.1742C190.993 13.4855 190.87 12.7958 190.589 12.1626C190.308 11.5293 189.876 10.9709 189.33 10.5336C188.127 9.5606 186.595 9.06307 185.035 9.13899C184.371 9.08547 183.702 9.16565 183.07 9.37457C182.438 9.58349 181.857 9.91673 181.362 10.3537C180.609 11.3416 180.043 12.4531 179.69 13.6358H179.692Z" fill="#848A9C"/>
</svg>
