<svg width="198" height="47" viewBox="0 0 198 47" fill="none" xmlns="http://www.w3.org/2000/svg">
<path d="M0 9.86312C0 9.86312 4.92645 29.7067 5.7127 32.9276C6.63039 36.6869 8.28389 38.0706 13.0513 37.1374L16.1275 24.8346C16.9071 21.7786 17.4301 19.6 17.9313 16.4913H18.0194C18.3716 19.6305 18.873 21.7878 19.5146 24.8453C19.5146 24.8453 20.7668 30.4304 21.4081 33.364C22.0511 36.2965 23.8404 38.1447 28.5101 37.1385L35.8399 9.86521H29.9219L27.4196 21.6567C26.7468 25.0891 26.1363 27.771 25.6656 30.911H25.5821C25.1543 27.8023 24.6102 25.2266 23.9262 21.8825L21.3207 9.86521H15.1547L12.3677 21.5797C11.5781 25.1394 10.8396 28.014 10.37 31.0475H10.2849C9.80396 28.1907 9.16339 24.578 8.46973 21.1321C8.46973 21.1321 6.81389 12.7533 6.23293 9.86521L0.000576209 9.86599L0 9.86312ZM56.4154 9.86312V37.1364H62.0497V31.345V9.86182H56.4154V9.86312ZM135.77 9.86312V29.9831C135.77 32.7571 136.301 34.7006 137.438 35.888C138.43 36.9264 140.065 37.5988 142.025 37.5988C143.691 37.5988 145.33 37.2883 146.102 37.0055L146.029 32.6773C145.455 32.8164 144.793 32.9276 143.889 32.9276C141.97 32.9276 141.326 31.7193 141.326 29.2286V21.5308H146.233V16.3126H141.326V9.8632H135.77L135.77 9.86312ZM43.8237 16.1856C40.3221 16.1856 37.5425 17.1521 36.0274 18.0127L37.1362 21.745C38.5229 20.8857 40.7307 20.1743 42.8213 20.1743C46.2825 20.1656 46.8484 22.0981 46.8484 23.3375V23.6306C39.3064 23.6195 34.5425 26.1849 34.5425 31.414C34.5425 34.6068 36.9676 37.5988 41.1845 37.5988C43.7804 37.5988 45.9514 36.5811 47.2525 34.9505H47.3801C47.3801 34.9505 48.2417 38.4917 52.9885 37.1375C52.7391 35.6637 52.6581 34.0923 52.6581 32.1997V24.9137C52.6581 20.2701 50.641 16.1857 43.8238 16.1857L43.8237 16.1856ZM77.528 16.1856C74.0022 16.1856 72.4178 17.942 71.4571 19.4321H71.3736V16.6482H65.9965V37.1377H71.6609V25.1214C71.6609 24.5581 71.7264 23.9624 71.9264 23.4442C72.3957 22.2344 73.5408 20.8192 75.3691 20.8192C77.6546 20.8192 78.7241 22.7186 78.7241 25.4598V37.1375H84.3824V24.9758C84.3824 24.4381 84.4574 23.7904 84.6183 23.3149C85.0835 21.9388 86.318 20.819 88.0174 20.819C90.3345 20.819 91.4465 22.6853 91.4465 25.9108V37.1376H97.1088V25.0699C97.1088 18.7056 93.8212 16.1858 90.1101 16.1858C88.4666 16.1858 87.1693 16.5908 85.9965 17.2986C85.0106 17.8933 84.1281 18.7381 83.3567 19.8506H83.2732C82.3757 17.6425 80.27 16.1858 77.527 16.1858L77.528 16.1856ZM108.633 16.1856C105.132 16.1856 102.353 17.1521 100.836 18.0127L101.947 21.745C103.332 20.8857 105.541 20.1743 107.631 20.1743C111.09 20.1656 111.657 22.0981 111.657 23.3375V23.6306C104.116 23.6195 99.3513 26.1849 99.3513 31.414C99.3513 34.6068 101.778 37.5988 105.997 37.5988C108.591 37.5988 110.762 36.5811 112.061 34.9505H112.189C112.189 34.9505 113.051 38.4917 117.798 37.1375C117.548 35.6637 117.468 34.0923 117.468 32.1997V24.9137C117.468 20.2701 115.451 16.1857 108.633 16.1857L108.633 16.1856ZM132.155 16.1856C129.986 16.1856 127.518 17.5619 126.483 20.5122H126.324V16.6479H121.225V37.1374H127.038V26.6455C127.038 26.0795 127.073 25.586 127.164 25.1334C127.594 22.9357 129.304 21.5307 131.759 21.5307C132.433 21.5307 132.915 21.6024 133.437 21.6765V16.3124C132.999 16.2255 132.7 16.1855 132.156 16.1855L132.155 16.1856ZM47.0303 27.2615V29.8176C47.0303 30.1957 46.9968 30.5858 46.8903 30.9269C46.4542 32.3465 44.9581 33.5462 43.0879 33.5462C41.5286 33.5462 40.2899 32.6763 40.2899 30.8361C40.2899 28.0213 43.4421 27.2432 47.0305 27.2615H47.0303ZM111.839 27.2615V29.8176C111.839 30.1957 111.805 30.5858 111.699 30.9269C111.263 32.3465 109.768 33.5462 107.897 33.5462C106.338 33.5462 105.099 32.6763 105.099 30.8361C105.099 28.0213 108.251 27.2432 111.839 27.2615H111.839Z" fill="#848A9C"/>
<path d="M176.697 0C174.878 0 173.433 0.998499 173.433 2.21406L174.537 14.5099C174.659 15.2506 175.582 15.8221 176.698 15.8221C177.817 15.8206 178.737 15.2497 178.861 14.5099L179.971 2.21406C179.971 0.998604 178.521 0.000104407 176.7 0.000104407L176.697 0ZM158.695 9.8631C157.751 9.88512 156.678 10.5879 155.996 11.7509C155.083 13.2995 155.245 15.0301 156.313 15.6372L167.696 20.8484C168.408 21.1084 169.373 20.612 169.933 19.6642C169.933 19.664 169.933 19.6638 169.933 19.6636C170.495 18.7111 170.451 17.6401 169.86 17.1651L159.578 10.0764C159.311 9.92432 159.011 9.85591 158.696 9.86325L158.695 9.8631ZM194.7 9.8631C194.385 9.85576 194.085 9.92417 193.818 10.0762L183.535 17.1649C182.947 17.64 182.904 18.711 183.463 19.6635L183.463 19.664C184.025 20.6118 184.987 21.1083 185.699 20.8483L197.088 15.6373C198.16 15.0302 198.313 13.2997 197.407 11.751C196.722 10.588 195.647 9.88524 194.703 9.86321L194.7 9.8631ZM168.122 26.0856C167.974 26.0837 167.832 26.1061 167.698 26.1555L156.314 31.3605C155.246 31.9702 155.085 33.7015 155.997 35.2517C156.907 36.7973 158.511 37.532 159.579 36.9259L169.861 29.8427C170.453 29.3618 170.497 28.2911 169.934 27.3395L169.939 27.3416C169.485 26.5665 168.76 26.094 168.122 26.0855L168.122 26.0856ZM185.278 26.0856C184.641 26.0942 183.917 26.5667 183.462 27.3418L183.466 27.3397C182.906 28.2913 182.95 29.362 183.538 29.8428L193.821 36.9261C194.887 37.5322 196.492 36.7974 197.406 35.2519C198.313 33.7016 198.159 31.9704 197.087 31.3606L185.701 26.1557C185.568 26.1062 185.425 26.0838 185.278 26.0858L185.278 26.0856ZM176.696 31.1815C175.582 31.1828 174.661 31.7518 174.539 32.4907L173.434 44.7859C173.434 46.0035 174.88 47 176.699 47C178.521 47 179.97 46.0035 179.97 44.7859L178.863 32.4907C178.738 31.7518 177.818 31.1829 176.7 31.1815H176.696H176.696Z" fill="#848A9C"/>
</svg>
