<svg width="228" height="31" viewBox="0 0 228 31" fill="none" xmlns="http://www.w3.org/2000/svg">
<path d="M16.4766 30.9998L4.63782 6.36389C3.8757 4.79903 3.15178 3.71026 2.4671 3.09958C1.78243 2.48891 0.988287 2.18256 0.0846808 2.18256H0V1.00842H17.0911L17.0704 2.18357C16.2938 2.21069 15.7042 2.37842 15.3014 2.68778C14.8987 2.99613 14.6983 3.43304 14.6983 3.99551C14.6983 4.25665 14.7365 4.54492 14.814 4.8603C14.8925 5.17668 15.0154 5.52019 15.1857 5.89081L19.7389 16.9523L25.7956 0L32.4462 16.9523L36.5542 6.28152C36.6678 5.9802 36.7556 5.64674 36.8186 5.28315C36.8826 4.91956 36.9136 4.54492 36.9136 4.16023C36.9136 3.55658 36.7019 3.09255 36.2785 2.77014C35.8551 2.44773 35.2128 2.25187 34.3515 2.18256V1.00842H43.0984V2.18357C41.9831 2.29305 41.0971 2.63254 40.4403 3.20304C39.7835 3.77253 39.1515 4.81309 38.5442 6.32271L28.7182 30.9998L22.3217 14.8089L16.4766 30.9998ZM60.7791 26.695C59.5792 28.0951 58.2026 29.1628 56.6484 29.898C55.0985 30.6319 53.3956 31.0089 51.6718 30.9998C50.0629 30.9998 48.5552 30.6835 47.1507 30.0517C45.7465 29.4205 44.5055 28.4914 43.5187 27.3328C42.6944 26.3862 42.0556 25.3005 41.634 24.1297C41.2106 22.9566 40.9979 21.689 40.9979 20.3301C40.9979 18.9289 41.2034 17.6242 41.6124 16.4159C42.0349 15.1838 42.6648 14.0284 43.4764 12.997C44.38 11.8017 45.5975 10.8345 47.129 10.0922C48.6615 9.35098 50.2178 8.98035 51.7988 8.98035C54.552 8.98035 56.7516 9.79693 58.3967 11.4311C60.0408 13.0653 60.8638 15.2558 60.8638 18.0019H48.6016C48.6863 20.4466 49.5052 22.4785 51.0584 24.0986C52.6116 25.7197 54.4818 26.5292 56.6701 26.5292C57.5034 26.5292 58.2583 26.3826 58.9368 26.0873C59.6394 25.7741 60.267 25.3215 60.7791 24.7585V26.695ZM48.5593 16.5405H50.5069C52.4278 16.5405 53.6061 16.3788 54.0439 16.0554C54.4818 15.7339 54.7007 15.1182 54.7007 14.2123C54.7007 12.9899 54.4746 12.0729 54.0233 11.4622C53.572 10.8516 52.8873 10.5462 51.9682 10.5462C50.7971 10.5462 49.9359 11.0233 49.3854 11.9775C48.835 12.9317 48.5593 14.4523 48.5593 16.5395V16.5405ZM69.0779 2.90272C67.4545 3.17793 66.0603 3.82978 64.8955 4.85929C63.7306 5.88981 62.7526 7.33112 61.9626 9.18525L61.0084 8.85581L62.7041 0.247083C63.0996 0.494165 63.6149 0.682993 64.25 0.813565C64.8851 0.944137 65.6411 1.00842 66.5158 1.00842H81.15C82.0113 1.00842 82.7569 0.944137 83.3848 0.813565C84.0127 0.682993 84.5249 0.494165 84.9204 0.247083L86.6564 8.85681L85.7042 9.18625C84.8853 7.30501 83.897 5.85265 82.7383 4.83017C81.5817 3.80668 80.1979 3.16487 78.5869 2.90372V25.3149C78.5869 26.6608 78.8203 27.5809 79.2871 28.075C79.7518 28.5692 80.642 28.8575 81.9555 28.9398V30.114H65.6473V28.9398C66.9877 28.8575 67.8954 28.5652 68.3684 28.064C68.8414 27.5628 69.0779 26.6468 69.0779 25.3149V2.90272ZM96.5857 12.4395C97.291 11.2865 98.0573 10.4207 98.8834 9.84414C99.7096 9.26761 100.595 8.97935 101.541 8.97935C102.586 8.97935 103.426 9.28067 104.06 9.88532C104.696 10.49 105.015 11.2865 105.015 12.2758C105.015 13.1396 104.749 13.8336 104.219 14.3549C103.691 14.8772 102.988 15.1383 102.113 15.1383C101.323 15.1383 100.564 14.829 99.8366 14.2113C99.1086 13.5936 98.647 13.2842 98.4487 13.2842C97.984 13.2842 97.6514 13.5855 97.4532 14.1902C97.2549 14.7948 97.1568 15.8726 97.1568 17.4244V25.9316C97.1568 27.0023 97.3798 27.7717 97.8239 28.2387C98.269 28.7058 98.9991 28.9388 100.016 28.9388H100.143V30.114H86.2701V28.9398H86.3972C87.3297 28.9398 87.9968 28.7098 88.3985 28.2498C88.8002 27.7898 89.0026 27.0174 89.0026 25.9326V18.1666C89.0026 17.5077 88.918 17.0206 88.7486 16.7042C88.5792 16.3878 88.2612 16.0795 87.7954 15.7781L85.1476 13.9652C86.5314 13.4981 88.1269 12.8563 89.9341 12.0388C91.7413 11.2222 93.9585 10.1475 96.5847 8.81462L96.5857 12.4395ZM116.596 17.9597C115.326 18.4549 114.358 19.2333 113.694 20.2979C113.03 21.3626 112.699 22.6633 112.699 24.201C112.699 25.0799 112.878 25.781 113.239 26.3023C113.599 26.8245 114.068 27.0857 114.648 27.0857C115.395 27.0857 115.907 26.7964 116.183 26.2199C116.458 25.6434 116.596 24.201 116.596 21.8939V17.9597ZM116.999 27.4553C115.925 28.6505 114.799 29.5394 113.62 30.123C112.441 30.7066 111.195 30.9988 109.882 30.9988C108.146 30.9988 106.737 30.5217 105.658 29.5676C104.577 28.6134 104.037 27.388 104.037 25.8904C104.037 24.1187 104.86 22.5779 106.505 21.2662C108.149 19.9544 111.513 18.3444 116.596 16.435V14.9736C116.596 13.4359 116.395 12.333 115.992 11.6671C115.589 11.0012 114.929 10.6688 114.012 10.6688C113.264 10.6688 112.642 10.8847 112.148 11.3176C111.655 11.7505 111.407 12.2888 111.407 12.9347C111.407 13.2772 111.421 13.6789 111.449 14.14C111.477 14.599 111.492 14.8913 111.492 15.0138C111.492 16.0172 111.206 16.8237 110.634 17.4344C110.062 18.0461 109.303 18.3514 108.357 18.3514C107.496 18.3514 106.804 18.0873 106.282 17.5579C105.759 17.0286 105.498 16.3326 105.498 15.4678C105.498 13.5996 106.409 12.0528 108.23 10.8224C110.052 9.59404 112.395 8.97935 115.262 8.97935C116.871 8.97935 118.329 9.17822 119.634 9.57697C120.941 9.97471 122.01 10.5512 122.843 11.3065C123.521 11.9253 124.001 12.6454 124.284 13.47C124.567 14.2946 124.707 15.5361 124.707 17.1984V23.0681C124.707 24.7022 124.838 25.8633 125.099 26.5493C125.36 27.2363 125.781 27.5799 126.359 27.5799C126.491 27.5789 126.621 27.5508 126.74 27.4975C126.867 27.4422 127.002 27.3599 127.143 27.2494V28.5883C126.578 29.2893 125.847 29.8317 124.951 30.2154C124.054 30.6001 123.062 30.7929 121.975 30.7929C120.732 30.7929 119.691 30.5117 118.852 29.9482C118.012 29.3848 117.393 28.5541 116.998 27.4553H116.999ZM138.386 25.9316C138.386 26.9893 138.579 27.7476 138.967 28.2076C139.356 28.6676 140.002 28.9107 140.906 28.9388V30.114H127.499V28.9398H127.626C128.559 28.9398 129.226 28.7098 129.628 28.2498C130.03 27.7898 130.232 27.0174 130.232 25.9326V18.1666C130.232 17.5077 130.147 17.0206 129.978 16.7042C129.807 16.3888 129.49 16.0795 129.025 15.7781L126.377 13.9652C128.22 13.3097 130.033 12.5745 131.809 11.7615C133.792 10.8533 135.738 9.87059 137.644 8.81563V12.317C138.49 11.2182 139.48 10.3945 140.608 9.84615C141.738 9.29573 143.009 9.02153 144.421 9.02153C146.736 9.02153 148.462 9.59404 149.599 10.7411C150.735 11.8881 151.303 13.6358 151.303 15.984V25.9326C151.303 27.0174 151.505 27.7898 151.907 28.2498C152.31 28.7098 152.977 28.9398 153.908 28.9398H154.035V30.114H143.151V16.1899C143.151 14.7064 142.963 13.6769 142.589 13.1004C142.215 12.5229 141.583 12.2346 140.694 12.2346C139.861 12.2346 139.268 12.5339 138.915 13.1305C138.562 13.7282 138.385 14.7476 138.385 16.1899L138.386 25.9316ZM154.753 29.2683V22.5126H155.854C156.489 24.7505 157.464 26.477 158.777 27.6923C160.089 28.9077 161.629 29.5153 163.394 29.5153C164.34 29.5153 165.074 29.3024 165.596 28.8775C166.119 28.4517 166.38 27.8541 166.38 27.0847C166.38 25.5741 164.855 24.2151 161.805 23.0068L161.53 22.9034C158.848 21.8467 157.068 20.8474 156.193 19.9062C155.318 18.9661 154.88 17.7538 154.88 16.2703C154.88 14.0606 155.734 12.2989 157.442 10.9871C159.15 9.6754 161.467 9.02153 164.389 9.02153C165.49 9.02153 166.62 9.11394 167.777 9.29975C168.935 9.48456 170.122 9.75575 171.335 10.1133V15.737H170.277C169.316 13.8417 168.356 12.4958 167.395 11.6993C166.435 10.9028 165.335 10.504 164.093 10.504C163.16 10.504 162.405 10.728 161.826 11.174C161.247 11.6199 160.959 12.1934 160.959 12.8935C160.959 14.0616 162.518 15.2559 165.639 16.4782C165.893 16.5746 166.083 16.649 166.21 16.7042C169.049 17.8311 170.884 18.8536 171.717 19.7736C172.55 20.6937 172.967 21.916 172.967 23.4397C172.967 25.6785 172.081 27.4975 170.309 28.8986C168.537 30.2998 166.232 30.9998 163.394 30.9998C162.01 30.9998 160.598 30.8552 159.158 30.5679C157.653 30.2604 156.18 29.8258 154.753 29.2693V29.2683ZM184.865 25.9316C184.865 27.0304 185.07 27.8058 185.48 28.2588C185.889 28.7118 186.581 28.9388 187.556 28.9388H187.852V30.114H173.98V28.9398H174.107C175.038 28.9398 175.705 28.7098 176.108 28.2498C176.511 27.7898 176.711 27.0174 176.711 25.9326V11.4723H174.636V10.3192C175.3 9.81099 176.133 8.76039 177.135 7.16741C177.672 6.32974 178.095 5.69797 178.406 5.27311C179.464 3.80367 180.725 2.66066 182.186 1.84308C183.646 1.02549 185.176 0.617707 186.771 0.617707C188.48 0.617707 189.874 1.01947 190.953 1.82299C192.034 2.62651 192.575 3.64497 192.575 4.88139C192.575 5.705 192.306 6.3679 191.769 6.8691C191.233 7.3703 190.519 7.62039 189.631 7.62039C188.939 7.62039 188.36 7.46672 187.894 7.15736C187.428 6.84801 186.941 6.23331 186.433 5.31429C185.911 4.42037 185.465 3.83782 185.099 3.56261C184.731 3.28841 184.293 3.15081 183.785 3.15081C183.192 3.15081 182.727 3.31955 182.388 3.65602C182.048 3.99249 181.879 4.44146 181.879 5.00493C181.047 4.03669 181.879 5.60958 181.879 5.00493C182.712 5.97317 184.498 9.17922 184.738 9.90741H188.719V11.4723H184.865V25.9316ZM208.328 26.694C207.128 28.0941 205.752 29.1618 204.197 29.897C202.648 30.6309 200.945 31.0079 199.221 30.9988C197.612 30.9988 196.104 30.6824 194.7 30.0507C193.296 29.4195 192.055 28.4904 191.068 27.3318C190.243 26.3852 189.605 25.2995 189.183 24.1287C188.76 22.9556 188.547 21.688 188.547 20.3291C188.547 18.9279 188.753 17.6232 189.161 16.4149C189.584 15.1828 190.214 14.0274 191.025 12.9959C191.929 11.8007 193.147 10.8335 194.678 10.0912C196.211 9.34997 197.767 8.97935 199.348 8.97935C202.101 8.97935 204.301 9.79593 205.946 11.4301C207.59 13.0642 208.413 15.2548 208.413 18.0009H196.151C196.235 20.4456 197.054 22.4775 198.607 24.0976C200.161 25.7187 202.031 26.5282 204.219 26.5282C205.053 26.5282 205.807 26.3816 206.485 26.0863C207.188 25.7732 207.816 25.3206 208.328 24.7575V26.694ZM196.108 16.5395H198.056C199.977 16.5395 201.155 16.3778 201.593 16.0543C202.031 15.7329 202.25 15.1172 202.25 14.2113C202.25 12.9889 202.024 12.0719 201.572 11.4612C201.12 10.8505 200.436 10.5452 199.517 10.5452C198.346 10.5452 197.485 11.0223 196.934 11.9765C196.382 12.9307 196.107 14.4513 196.107 16.5385L196.108 16.5395ZM219.571 12.4395C220.276 11.2865 221.043 10.4207 221.868 9.84414C222.694 9.26761 223.58 8.97935 224.526 8.97935C225.571 8.97935 226.411 9.28067 227.046 9.88532C227.682 10.49 228 11.2865 228 12.2758C228 13.1396 227.735 13.8336 227.205 14.3549C226.676 14.8772 225.974 15.1383 225.098 15.1383C224.307 15.1383 223.549 14.829 222.821 14.2113C222.094 13.5936 221.631 13.2842 221.434 13.2842C220.968 13.2842 220.637 13.5855 220.439 14.1902C220.24 14.7948 220.142 15.8726 220.142 17.4244V25.9316C220.142 27.0023 220.364 27.7717 220.809 28.2387C221.253 28.7058 221.985 28.9388 223.002 28.9388H223.129V30.114H209.257V28.9398H209.384C210.315 28.9398 210.982 28.7098 211.385 28.2498C211.788 27.7898 211.989 27.0174 211.989 25.9326V18.1666C211.989 17.5077 211.904 17.0206 211.735 16.7042C211.566 16.3878 211.248 16.0795 210.782 15.7781L208.134 13.9652C209.518 13.4981 211.113 12.8563 212.921 12.0388C214.728 11.2222 216.944 10.1475 219.571 8.81462V12.4395Z" fill="#848A9C"/>
</svg>
