<svg width="188" height="31" viewBox="0 0 188 31" fill="none" xmlns="http://www.w3.org/2000/svg">
<path d="M18.6026 15.9173C20.098 16.0365 21.3541 16.6327 22.4308 17.7654C23.5075 18.8981 24.0458 20.4481 24.0458 22.4154C24.0458 24.8 23.2682 26.7673 21.6532 28.1981C20.0382 29.6288 17.7652 30.3442 14.7146 30.3442H0V2.08654H14.6548C17.2269 2.08654 19.3204 2.80192 20.8756 4.17308C22.4308 5.60385 23.2084 7.45192 23.2084 9.77692C23.2084 11.5654 22.7299 12.9365 21.713 14.0096C20.6962 15.0827 19.6793 15.6192 18.5428 15.7385L18.6026 15.9173ZM6.99841 13.7712H13.0996C14.1164 13.7712 14.9539 13.4731 15.6118 12.8769C16.21 12.2808 16.5689 11.5654 16.5689 10.5519C16.5689 9.65769 16.2698 9.00192 15.6717 8.46538C15.0735 7.92885 14.2959 7.69038 13.3987 7.69038H6.99841V13.7712V13.7712ZM13.4585 24.7404C14.5352 24.7404 15.4324 24.4423 16.0305 23.9058C16.6287 23.3692 16.9278 22.5942 16.9278 21.5808C16.9278 20.6269 16.6287 19.9115 15.9707 19.375C15.3726 18.8385 14.5352 18.5404 13.5781 18.5404H6.99841V24.7404H13.4585ZM48.2711 30.3442H41.5119V28.3173C39.8371 30.1058 37.6239 31 34.992 31C32.4798 31 30.5059 30.1654 29.0105 28.5558C27.5151 26.9462 26.7375 24.8 26.7375 22.1769V9.18077H33.4368V20.7462C33.4368 21.9981 33.7957 23.0115 34.4537 23.7865C35.1117 24.5615 36.0089 24.9192 37.0856 24.9192C38.4613 24.9192 39.538 24.4423 40.3156 23.4885C41.0932 22.5346 41.4521 21.0442 41.4521 19.0173V9.18077H48.2113L48.2711 30.3442V30.3442ZM69.1467 30.3442H51.202V29.0923L59.636 14.5462H51.4413V9.18077H69.027V10.4327L60.5931 24.9788H69.0869V30.3442H69.1467ZM89.9625 30.3442H72.0776V29.0923L80.4518 14.5462H72.2571V9.18077H89.8428V10.4327L81.4089 24.9788H89.9026L89.9625 30.3442ZM100.011 14.1885H112.274V20.2692H100.011V30.4038H93.0131V2.08654H113.35V8.16731H100.011V14.1885ZM161.861 21.5212H146.309C146.727 24.1442 148.701 25.6346 151.632 25.6346C153.965 25.6346 156.298 24.7404 158.032 23.3692L160.605 27.8404C158.212 29.8673 155.161 31 151.632 31C144.514 31 139.669 26.7077 139.669 19.7923C139.669 16.5135 140.746 13.8308 142.899 11.7442C145.053 9.65769 147.744 8.58462 150.914 8.58462C153.965 8.58462 156.537 9.59808 158.631 11.6846C160.724 13.7712 161.801 16.4538 161.861 19.8519V21.5212V21.5212ZM148.163 14.9038C147.325 15.5 146.727 16.3346 146.428 17.3481H155.161C154.862 16.275 154.324 15.4404 153.546 14.8442C152.769 14.3077 151.871 14.0096 150.914 14.0096C149.898 14.0096 149 14.3077 148.163 14.9038V14.9038ZM137.097 21.5212H121.545C121.964 24.1442 123.938 25.6346 126.869 25.6346C129.201 25.6346 131.534 24.7404 133.269 23.3692L135.841 27.8404C133.448 29.8673 130.398 31 126.869 31C119.751 31 114.906 26.7077 114.906 19.7923C114.906 16.5135 115.982 13.8308 118.136 11.7442C120.289 9.65769 122.981 8.58462 126.151 8.58462C129.201 8.58462 131.773 9.59808 133.867 11.6846C135.961 13.7712 137.037 16.4538 137.097 19.8519V21.5212V21.5212ZM123.399 14.9038C122.562 15.5 121.964 16.3346 121.665 17.3481H130.398C130.099 16.275 129.56 15.4404 128.783 14.8442C128.005 14.3077 127.108 14.0096 126.151 14.0096C125.134 14.0096 124.237 14.3077 123.399 14.9038V14.9038ZM188 30.3442H181.241V28.675C179.506 30.225 177.353 31 174.661 31C171.79 31 169.338 29.9269 167.304 27.8404C165.27 25.7538 164.253 23.0712 164.253 19.7923C164.253 16.5135 165.27 13.8308 167.304 11.7442C169.338 9.65769 171.79 8.58462 174.661 8.58462C177.353 8.58462 179.566 9.35962 181.241 10.9096V0H188V30.3442ZM179.745 23.7269C180.762 22.7135 181.301 21.4019 181.301 19.7923C181.301 18.2423 180.762 16.9308 179.745 15.8577C178.729 14.8442 177.472 14.3077 176.097 14.3077C174.601 14.3077 173.405 14.8442 172.448 15.8577C171.491 16.8712 171.012 18.1827 171.012 19.7923C171.012 21.4019 171.491 22.7731 172.448 23.7865C173.405 24.8 174.601 25.2769 176.097 25.2769C177.472 25.2769 178.669 24.7404 179.745 23.7269Z" fill="#848A9C"/>
</svg>
